<svg xmlns="http://www.w3.org/2000/svg" width="12.96" height="11.16" fill="none" viewBox="0 0 12.96 11.16"><defs><linearGradient id="master_svg0_2_1772" x1=".5" x2=".5" y1=".322" y2="1"><stop offset="0%" stop-color="#38ca8f"/><stop offset="100%" stop-color="#21a278"/></linearGradient></defs><path fill="#1a8561" fill-rule="evenodd" d="m11.388 3.565.012 4.649-6.935-1.262 5.97-3.901a.616.616 0 0 1 .953.514"/><path fill="#38ca8f" fill-rule="evenodd" d="M1.684 3.568v4.646l6.92-1.262-5.967-3.9a.616.616 0 0 0-.953.516"/><path fill="#1a8561" fill-rule="evenodd" d="m4.464 4.245-1.258 1.65L2.077 3.55c-.17-.354.233-.707.561-.493z"/><path fill="url(#master_svg0_2_1772)" fill-rule="evenodd" d="m7.264 1.891 3.881 5.28c.753 1.023.022 2.467-1.249 2.467H3.255c-1.224 0-1.965-1.35-1.307-2.382l3.376-5.3a1.176 1.176 0 0 1 1.94-.065"/></svg>