<svg xmlns="http://www.w3.org/2000/svg" width="16" height="16" fill="none" viewBox="0 0 16 16"><defs><clipPath id="master_svg0_2_04325/2_2887/2_2386"><rect width="17.333" height="17.333" x="15.333" y="-.667" rx="0"/></clipPath></defs><g fill="#0d0d0d" fill-rule="evenodd" clip-path="url(#master_svg0_2_04325/2_2887/2_2386)" transform="matrix(-1 0 0 1 32 0)"><path d="M24.47 4.47q.094-.093.144-.216.05-.122.05-.254 0-.065-.012-.13-.013-.064-.038-.124t-.061-.115-.083-.101-.1-.083-.116-.061-.124-.038-.13-.013q-.132 0-.254.05-.123.051-.216.145l-.001-.001-4 4q-.047.046-.083.1t-.062.116-.038.125-.013.13.013.13.038.125.062.115q.036.055.083.101l4 4q.094.093.217.143.122.05.254.05.065 0 .13-.012.064-.013.124-.038t.115-.061.101-.083.083-.1.061-.116.038-.124.013-.13q0-.132-.05-.254-.051-.123-.145-.216l.001-.001L20.943 8l3.528-3.529"/><path d="M28.47 4.47q.094-.093.144-.216.05-.122.05-.254 0-.065-.012-.13-.013-.064-.038-.124t-.061-.115-.083-.101-.1-.083-.116-.061-.124-.038-.13-.013q-.132 0-.254.05-.123.051-.216.145l-.001-.001-4 4q-.047.046-.083.1t-.062.116-.038.125-.013.13.013.13.038.125.062.115q.036.055.083.101l4 4q.094.093.217.143.122.05.254.05.065 0 .13-.012.064-.013.124-.038t.115-.061.101-.083.083-.1.061-.116.038-.124.013-.13q0-.132-.05-.254-.051-.123-.145-.216l.001-.001L24.943 8l3.528-3.529"/></g></svg>