<svg xmlns="http://www.w3.org/2000/svg" width="16" height="16" fill="none" viewBox="0 0 16 16"><rect width="16" height="16" fill="#0d0d0d" rx="4.8"/><path fill="#fefefe" d="M4.313 8.995V13.6H5.54V8.874c.506.459 1.01 1.013 1.516 1.652l.686-1.085q-.433-.415-.903-.796c.337-.253.65-.578.939-.964l-.71-.711c-.337.458-.674.807-1.022 1.06l-.506-.337v-.048a9 9 0 0 0 1.42-2.448V4.173H5.697A20 20 0 0 0 5.035 2.4l-1.215.326c.229.47.433.952.626 1.447h-1.72v1.145h2.983C5.13 6.524 4.024 7.778 2.4 9.055l.385 1.278c.554-.434 1.059-.88 1.528-1.338M9.09 2.449v11.14h1.24V7.692c.685.506 1.527 1.218 2.526 2.11l.745-1.11a39 39 0 0 0-3.272-2.302V2.449z"/></svg>