<svg xmlns="http://www.w3.org/2000/svg" width="20" height="20" fill="none" viewBox="0 0 20 20"><path fill="#0d0d0d" fill-rule="evenodd" d="M8 8.835h4q.082 0 .163-.017.08-.016.156-.047.076-.032.144-.077.069-.046.127-.104t.104-.127q.045-.068.077-.144.031-.076.047-.156.017-.081.017-.163 0-.083-.017-.163-.016-.08-.047-.157-.032-.076-.077-.144-.046-.069-.104-.127t-.127-.103-.144-.078-.156-.047T12 7.165H8q-.083 0-.163.016t-.157.047-.144.078q-.069.045-.127.103t-.103.127-.078.144-.047.157T7.165 8t.016.163.047.156.078.144q.045.069.103.127t.127.104q.068.045.144.077.076.031.157.047.08.017.163.017M8 12.835h3q.082 0 .163-.016.08-.016.156-.047.076-.032.144-.078.069-.045.127-.103t.104-.127q.045-.068.077-.144.031-.076.047-.157.017-.08.017-.163 0-.082-.017-.163-.016-.08-.047-.156-.032-.076-.077-.144-.046-.069-.104-.127t-.127-.104q-.068-.045-.144-.077-.076-.031-.156-.047-.081-.017-.163-.017H8q-.083 0-.163.017-.08.016-.157.047-.076.032-.144.077-.069.046-.127.104t-.103.127-.078.144-.047.156-.016.163q0 .083.016.163t.047.157.078.144q.045.069.103.127t.127.103.144.078.157.047.163.016"/><rect width="12" height="14" x="4" y="3" stroke="#0d0d0d" stroke-width="1.67" rx="3"/></svg>