<svg xmlns="http://www.w3.org/2000/svg" width="32" height="32" fill="none" viewBox="0 0 32 32"><defs><clipPath id="master_svg0_2_04382/2_4811/2_4737/2_4695/2_2035"><rect width="32" height="32" rx="0"/></clipPath></defs><g fill="#0d0d0d" clip-path="url(#master_svg0_2_04382/2_4811/2_4737/2_4695/2_2035)"><path d="M30.716 19.825c-.576 1.185-1.184 1.505-2.449 1.313-.816-.128-1.248-.608-1.377-1.553.497 0 .977-.016 1.457 0 .32.016.464-.096.464-.432-.016-.496 0-.992-.016-1.488-.016-.417-.24-.689-.656-.689-.848-.016-1.697 0-2.625 0v4.194h-1.889v-4.162H21.72v-1.952h1.841v-1.633H22.33v-1.889c.4-.016.784-.032 1.248-.064v-.656h1.905c-.08.528.128.704.688.704 1.457.016 2.225.849 2.257 2.305.016.4 0 .8 0 1.249 1.185-.048 1.905.432 2.289 1.424zm-5.218-6.498c0 .576-.016 1.008.016 1.44.016.113.208.289.32.289.224 0 .656-.08.656-.16.048-.433.064-.913-.064-1.329-.032-.144-.528-.144-.928-.24M7.123 10.814c0 2.881 0 5.762-.016 8.643 0 1.233-.785 1.89-1.937 1.697-.768-.128-1.168-.64-1.2-1.553h1.264v-8.787zm8.05 0c-.463.928-.975 1.825-1.312 2.721.769-.048 1.473-.08 2.29-.128-.433.88-.833 1.665-1.217 2.449a3 3 0 0 1-.16.32c-.4.816-.4.816.496.848.096 0 .192.016.352.032-.256.497-.48.96-.72 1.393-.032.08-.144.16-.224.16-.673 0-1.345.016-2.001-.048-.48-.048-.672-.416-.48-.88.224-.56.496-1.12.752-1.665.08-.192.176-.384.304-.672-.368 0-.64.016-.912 0-.8-.032-1.057-.384-.736-1.105.512-1.152 1.104-2.273 1.648-3.409q.032-.016 1.92-.016m-13.86 7.219c.112-.672.272-1.329.352-2.001.096-.848.144-1.697.208-2.577h2c-.336 2.289.065 4.706-1.424 6.803-.4-.705-.768-1.345-1.136-2.001zm29.403-5.33c-.432.736-1.104.768-1.825.64-.224-.944-.064-1.553.448-1.793.465-.208.897-.048 1.377.544z"/><path d="M19.736 19.281c.512 0 1.008.016 1.488 0 .304-.016.4.112.416.416.096 1.505.096 1.505-1.408 1.505h-5.346c.336-.656.608-1.232.912-1.777.064-.096.32-.128.48-.128.464-.016.945 0 1.457 0v-5.89h-1.217V11.55h4.386v1.825h-1.2c.032 1.985.032 3.905.032 5.906M8.467 13.455h1.873c.096 1.152.048 2.32.304 3.41.288 1.28-.176 2.272-.784 3.297-.913-.8-1.409-3.17-1.393-6.707m3.361 5.794h3.026c-.336.656-.609 1.2-.897 1.729a.43.43 0 0 1-.32.192c-.88.016-1.76.016-2.785.016.384-.768.704-1.377.976-1.937"/></g></svg>