<svg xmlns="http://www.w3.org/2000/svg" width="20" height="20" fill="none" viewBox="0 0 20 20"><circle cx="10" cy="7.5" r="2.917" stroke="#0d0d0d" stroke-width="1.667"/><path fill="#0d0d0d" fill-rule="evenodd" d="m17.5 16.612.001.055q0 .082-.016.163-.016.08-.047.156-.032.076-.077.144-.046.069-.104.127t-.127.104q-.068.045-.144.077-.076.031-.156.047-.081.016-.163.016-.083 0-.163-.016t-.157-.047-.144-.077q-.069-.046-.127-.104t-.103-.127-.078-.144-.047-.156-.016-.163l.001-.044q-.015-1.008-.732-1.724-.732-.732-1.768-.732H6.667q-1.036 0-1.768.732-.717.716-.732 1.724l.001.044q0 .082-.016.163-.016.08-.047.156-.032.076-.078.144-.045.069-.103.127t-.127.104q-.068.045-.144.077-.076.031-.157.047-.08.016-.163.016-.082 0-.163-.016-.08-.016-.156-.047-.076-.032-.144-.077-.069-.046-.127-.104t-.104-.127q-.045-.068-.077-.144-.031-.076-.047-.156-.016-.081-.016-.163l.001-.055q.02-1.69 1.22-2.892 1.22-1.22 2.947-1.22h6.666q1.726 0 2.947 1.22 1.2 1.201 1.22 2.892"/></svg>