<svg xmlns="http://www.w3.org/2000/svg" width="20" height="20" fill="none" viewBox="0 0 20 20"><circle cx="5.833" cy="9.167" r="1.25" stroke="#0d0d0d" stroke-width="1.667"/><circle cx="13.333" cy="7.5" r="2.083" stroke="#0d0d0d" stroke-width="1.667"/><path fill="#0d0d0d" fill-rule="evenodd" d="M8.75 14.168q.082 0 .163-.016.08-.016.156-.047.076-.032.145-.078.068-.045.126-.103t.104-.127.077-.144.048-.157.016-.163-.016-.163-.048-.156-.077-.144q-.046-.069-.104-.127t-.126-.104q-.069-.045-.145-.077-.075-.031-.156-.047-.08-.017-.163-.017l-.05.002H5.833q-1.726 0-2.946 1.22-1.2 1.201-1.22 2.892-.002.027-.002.055 0 .082.016.163.016.08.048.156.031.076.077.144.046.069.104.127t.126.104q.069.045.145.077.075.031.156.047.08.016.163.016.082 0 .163-.016.08-.016.156-.047.076-.032.145-.077.068-.046.126-.104t.104-.127.077-.144.048-.156.016-.163l-.001-.044q.015-1.008.732-1.724.732-.732 1.767-.732H8.7z"/><path fill="#0d0d0d" fill-rule="evenodd" d="m18.333 16.617.002.05q0 .082-.016.163-.016.08-.048.156-.031.076-.077.144-.046.069-.104.127t-.126.104q-.069.045-.145.077-.075.031-.156.047-.08.016-.163.016-.082 0-.163-.016-.08-.016-.156-.047-.076-.032-.145-.077-.068-.046-.126-.104t-.104-.127-.077-.144-.048-.156-.016-.163l.002-.05v-.367q0-1.208-.855-2.062-.854-.855-2.062-.855h-.833q-1.208 0-2.063.855Q10 15.042 10 16.25v.367l.001.05q0 .082-.016.163-.016.08-.047.156-.032.076-.077.144-.046.069-.104.127t-.127.104q-.068.045-.144.077-.076.031-.156.047-.081.016-.163.016-.083 0-.163-.016t-.157-.047-.144-.077q-.069-.046-.127-.104t-.103-.127-.078-.144-.047-.156-.016-.163l.001-.05v-.367q0-1.898 1.343-3.24t3.24-1.343h.834q1.898 0 3.24 1.342t1.343 3.241z"/></svg>