<svg xmlns="http://www.w3.org/2000/svg" width="20" height="20" fill="none" viewBox="0 0 20 20"><rect width="20" height="20" fill="none" rx="0"/><path fill="#0d0d0d" fill-rule="evenodd" d="M4.167 8.333v5.834h1.666V8.333q0-1.726 1.22-2.946Q8.275 4.167 10 4.167t2.946 1.22q1.22 1.22 1.22 2.946v5.834h1.667V8.333q0-2.416-1.708-4.124Q12.416 2.5 10 2.5T5.875 4.209 4.167 8.333"/><path fill="#0d0d0d" fill-rule="evenodd" d="m3.383 15.188-.05.002q-.082 0-.163-.017-.08-.016-.156-.047-.076-.032-.145-.077-.068-.046-.126-.104t-.104-.127-.077-.144-.048-.156-.016-.163q0-.083.016-.163.017-.08.048-.157.031-.076.077-.144t.104-.127.126-.103.145-.078.156-.047.163-.016l.05.001h13.234l.05-.001q.082 0 .162.016.081.016.157.047.076.032.144.078.069.045.127.103.058.059.104.127t.077.144.047.157.016.163q0 .082-.016.163-.016.08-.047.156-.032.076-.077.144-.046.069-.104.127t-.127.104q-.068.045-.144.077-.076.031-.157.047-.08.017-.162.017l-.05-.002z"/><path fill="#0d0d0d" fill-rule="evenodd" d="M13.333 14.167H6.667A3.328 3.328 0 0 0 10 17.5a3.33 3.33 0 0 0 3.333-3.333"/></svg>