<svg xmlns="http://www.w3.org/2000/svg" width="16" height="16" fill="none" viewBox="0 0 16 16"><path fill="#888" fill-rule="evenodd" d="M9.057 8 5.53 4.471q-.093-.094-.143-.217-.05-.122-.05-.254 0-.065.012-.13.013-.064.038-.124t.061-.115.083-.101.1-.083.116-.061.124-.038.13-.013q.132 0 .254.05.123.051.216.145l.001-.001 4 4q.047.046.083.1t.062.116.038.125.013.13-.013.13-.038.125-.062.115q-.036.055-.083.101l-4 4q-.094.093-.217.143-.122.05-.254.05-.065 0-.13-.012-.064-.013-.124-.038t-.115-.061-.101-.083-.083-.1-.061-.116-.038-.124-.013-.13q0-.132.05-.254.051-.123.145-.216l-.001-.001z"/></svg>