<svg xmlns="http://www.w3.org/2000/svg" width="84" height="22" fill="none" viewBox="0 0 84 22"><path fill="#ff5aa3" fill-rule="evenodd" d="M19.14 5.474c-2.125 4.045-3.017 9.418-5.098 12.79-2.842 4.469-8.409 4.594-11.635 1.729C.07 17.883.03 15.652.07 12.743c0-2.53.171-4.868 1.36-6.974C2.575 3.659 5.124.794 10.39.289q.241-.023.505-.023h.045c.966 0 2.11.185 3.102.572 1.572.675 3.698 1.936 5.099 4.636"/><path fill="#00eff5" fill-rule="evenodd" d="M35.874 19.993c-3.23 2.865-8.792 2.74-11.639-1.73-2.08-3.37-2.972-8.744-5.094-12.79 1.4-2.699 3.526-3.96 5.094-4.635a8.9 8.9 0 0 1 3.103-.572q.289 0 .55.022c5.27.506 7.815 3.371 8.963 5.48 1.19 2.107 1.36 4.444 1.36 6.974.041 2.91 0 5.141-2.337 7.25"/><path fill="#395ae5" fill-rule="evenodd" d="M27.338.266c-.966 0-2.11.185-3.103.572-1.568.675-3.693 1.936-5.094 4.636-1.401-2.7-3.527-3.961-5.099-4.636A8.9 8.9 0 0 0 10.94.266s3.167-.22 8.2-.22c4.968 0 8.2.22 8.2.22"/><path fill="#0d0d0d" fill-rule="evenodd" d="m56.746 7.32 1.074.531.002.001a.7.7 0 0 0 .295.061.7.7 0 0 0 .614-.347l2.237-4.185a.16.16 0 0 0 .011-.132.18.18 0 0 0-.099-.105l-1.075-.532c-.338-.148-.746-.02-.91.286l-2.237 4.185a.16.16 0 0 0-.011.132.18.18 0 0 0 .099.105M49.804 7.32l-1.074.531-.002.001a.7.7 0 0 1-.295.061.7.7 0 0 1-.614-.347l-2.237-4.185a.16.16 0 0 1-.011-.132.18.18 0 0 1 .099-.105l1.075-.532c.338-.148.746-.02.91.286l2.237 4.185a.16.16 0 0 1 .011.132.18.18 0 0 1-.099.105M83.922 2.647a.18.18 0 0 0-.142-.074H68.762a.387.387 0 0 0-.388.386v5.92c0 3.379-.265 7.196-2.236 9.893a.174.174 0 0 0 .053.254l1.497.86a.175.175 0 0 0 .235-.058c1.692-2.722 2.382-5.894 2.382-10.948V4.607c0-.06.049-.109.109-.109h12.393c.31 0 .59-.196.697-.487l.44-1.204a.17.17 0 0 0-.022-.16"/><path fill="#0d0d0d" fill-rule="evenodd" d="m62.634 17.018-1.326-.77a.175.175 0 0 0-.26.12c-.232 1.275-.587 1.579-1.084 1.655-.718.112-1.698.112-2.281 0-.597-.11-.94-.689-.94-1.587v-5.48h4.745c.311 0 .591-.196.697-.487l.4-1.092a.174.174 0 0 0-.165-.234h-8.126V2.085a.174.174 0 0 0-.175-.173h-1.693a.174.174 0 0 0-.175.173v7.058H44.23a.175.175 0 0 0-.174.174v1.465c0 .096.078.174.174.174h5.346c-.284 3.604-1.999 5.903-5.556 7.452a.173.173 0 0 0-.066.271l1.023 1.228a.175.175 0 0 0 .207.047c1.936-.88 3.3-1.88 4.29-3.144 1.174-1.497 1.853-3.412 2.077-5.854h3.308v5.838c0 1.647.955 2.805 2.434 2.951.818.081 1.7.081 2.86 0 1.962-.136 2.29-1.388 2.579-2.493a.21.21 0 0 0-.097-.234"/></svg>