<svg xmlns="http://www.w3.org/2000/svg" xmlns:xlink="http://www.w3.org/1999/xlink" fill="none" version="1.1" width="13.996185302734375" height="13.996337890625" viewBox="0 0 13.996185302734375 13.996337890625"><g><path d="M-0.0000026226068749999904,1.164794959375Q-0.0000026226068749999904,1.396481559375,0.088659993953125,1.610531959375Q0.177322606953125,1.824582359375,0.341149746953125,1.988409559375L0.339806436953125,1.989752859375L5.348181676953125,6.998128459375L0.339806436953125,12.006503859375L0.341150106953125,12.007847859375Q0.177322786953125,12.171674859375,0.088660083953125,12.385724859375Q-0.0000026226068749999904,12.599774859375,-0.0000026226068749999904,12.831462859375Q-0.0000026226068749999904,12.888684859375,0.005606048253125,12.945629859375Q0.011214718953125,13.002575859375,0.022378043953125,13.058696859375Q0.033541373953125,13.114818859375,0.050151846953125,13.169576859375Q0.066762320953125,13.224333859375,0.088659971953125,13.277198859375Q0.110557626953125,13.330065859375,0.137531576953125,13.380529859375Q0.164505526953125,13.430995859375,0.196295976953125,13.478571859375Q0.228086456953125,13.526150859375,0.264387306953125,13.570382859375Q0.300688146953125,13.614616859375,0.341149716953125,13.655076859375Q0.381611286953125,13.695539859375,0.425843986953125,13.731839859375Q0.470076676953125,13.768140859375,0.517654416953125,13.799930859375Q0.565232276953125,13.831721859375,0.615696966953125,13.858694859375Q0.666161656953125,13.885669859375,0.719027276953125,13.907565859375Q0.771893026953125,13.929463859375,0.826650436953125,13.946075859375Q0.881407796953125,13.962685859375,0.937529566953125,13.973847859375Q0.993651506953125,13.985011859375,1.050597276953125,13.990621859375Q1.107543076953125,13.996229859375,1.164764376953125,13.996229859375Q1.396450976953125,13.996229859375,1.610501576953125,13.907567859375Q1.824552076953125,13.818904859375,1.988379276953125,13.655077859375L1.989722376953125,13.656420859375L6.998097876953125,8.648044559375L12.006473376953124,13.656420859375L12.007817376953126,13.655076859375Q12.171644376953125,13.818904859375,12.385694376953126,13.907567859375Q12.599744376953126,13.996228859375,12.831432376953124,13.996229859375Q12.888654376953125,13.996229859375,12.945599376953124,13.990621859375Q13.002546376953125,13.985011859375,13.058666376953125,13.973847859375Q13.114788376953125,13.962685859375,13.169546376953125,13.946074859375Q13.224303376953126,13.929463859375,13.277168376953124,13.907565859375Q13.330035376953125,13.885669859375,13.380499376953125,13.858694859375Q13.430964376953124,13.831720859375,13.478541376953125,13.799929859375Q13.526119376953124,13.768140859375,13.570352376953124,13.731839859375Q13.614585376953125,13.695539859375,13.655046376953125,13.655076859375Q13.695509376953124,13.614616859375,13.731809376953125,13.570383859375Q13.768110376953125,13.526150859375,13.799900376953126,13.478571859375Q13.831691376953126,13.430995859375,13.858664376953126,13.380530859375Q13.885639376953124,13.330065859375,13.907535376953126,13.277198859375Q13.929433376953124,13.224333859375,13.946045376953125,13.169575859375Q13.962656376953126,13.114818859375,13.973817376953125,13.058696859375Q13.984981376953124,13.002575859375,13.990591376953125,12.945630859375Q13.996199376953125,12.888684859375,13.996199376953125,12.831462859375Q13.996198376953124,12.599774859375,13.907536376953125,12.385724859375Q13.818873376953125,12.171674859375,13.655046376953125,12.007847859375L13.656390376953125,12.006503859375L8.648014076953125,6.998128459375L13.656390376953125,1.989752859375L13.655047376953124,1.988409759375Q13.818874376953126,1.824582559375,13.907536376953125,1.610532059375Q13.996199376953125,1.396481559375,13.996199376953125,1.164794959375Q13.996199376953125,1.107573459375,13.990591376953125,1.050627859375Q13.984981376953124,0.993681969375,13.973817376953125,0.937560079375Q13.962656376953126,0.881438319375,13.946045376953125,0.826680899375Q13.929433376953124,0.771923479375,13.907535376953126,0.719057799375Q13.885639376953124,0.666192229375,13.858664376953126,0.615727539375Q13.831690376953125,0.565262799375,13.799899376953125,0.517684999375Q13.768110376953125,0.470107229375,13.731809376953125,0.425874529375Q13.695509376953124,0.381641869375,13.655046376953125,0.341180269375Q13.614585376953125,0.300718669375,13.570353376953125,0.264417859375Q13.526120376953125,0.228117019375,13.478542376953126,0.196326539375Q13.430965376953125,0.164536069375,13.380500376953124,0.137562129375Q13.330035376953125,0.110588159375,13.277168376953124,0.088690504375Q13.224303376953126,0.066792853375,13.169545376953126,0.050182372375Q13.114788376953125,0.033571895375,13.058666376953125,0.022408565375Q13.002546376953125,0.011245238375,12.945600376953125,0.005636566275Q12.888654376953125,0.000027894974999999995,12.831432376953124,0.000027894974999999995Q12.599744376953126,0.000027894974999999995,12.385694376953126,0.088690586375Q12.171644376953125,0.177353279375,12.007817376953126,0.341180559375L12.006473376953124,0.339836959375L6.998097876953125,5.348212259375L1.989722376953125,0.339836959375L1.988378976953125,0.341180269375Q1.824551776953125,0.177353129375,1.610501576953125,0.088690512375Q1.396450976953125,0.000027894974999999995,1.164764376953125,0.000027894974999999995Q1.107543076953125,0.000027894974999999995,1.050597276953125,0.005636565875Q0.993651506953125,0.011245236375,0.937529626953125,0.022408561375Q0.881407856953125,0.033571891375,0.826650376953125,0.050182365375Q0.771893026953125,0.066792838375,0.719027276953125,0.088690489375Q0.666161656953125,0.110588149375,0.615696966953125,0.137562099375Q0.565232276953125,0.164536059375,0.517654476953125,0.196326509375Q0.470076706953125,0.228116989375,0.425844046953125,0.264417829375Q0.381611346953125,0.300718669375,0.341149746953125,0.341180239375Q0.300688146953125,0.381641809375,0.264387306953125,0.425874499375Q0.228086466953125,0.470107169375,0.196296006953125,0.517684939375Q0.164505536953125,0.565262799375,0.137531596953125,0.615727479375Q0.110557636953125,0.666192169375,0.088659978953125,0.719057799375Q0.066762327953125,0.771923479375,0.050151846953125,0.826680899375Q0.033541373953125,0.881438319375,0.022378047953125,0.937560079375Q0.011214720953125,0.993681969375,0.005606048753125,1.050627859375Q-0.0000026226068749999904,1.107573459375,-0.0000026226068749999904,1.164794959375Z" fill-rule="evenodd" fill="#0D0D0D" fill-opacity="1"/></g></svg>