<svg xmlns="http://www.w3.org/2000/svg" width="10.39" height="9.62" fill="none" viewBox="0 0 10.388 9.623"><defs><linearGradient id="master_svg0_811_030273" x1=".262" x2=".768" y1=".013" y2=".729"><stop offset="0%" stop-color="#f1dcce"/><stop offset="100%" stop-color="#e2c6ac"/></linearGradient></defs><path fill="url(#master_svg0_811_030273)" d="M.633 2.5C-.2 3.75-.207 4.596.587 5.417l3.17 3.075c1.46 1.508 1.46 1.508 2.919 0l3.079-3.075c.793-.821.879-1.667.046-2.917C8.55.417 8.549 0 6.883 0H3.55C1.882 0 1.883.417.633 2.5"/><path fill="#0d0d0d" fill-rule="evenodd" d="M2.629 4.692q-.099-.148-.099-.325 0-.057.012-.114.01-.056.033-.11.022-.053.054-.1.032-.049.073-.09t.088-.072.101-.054.11-.033.114-.012q.083 0 .163.023t.15.068.124.106q.056.062.091.136.202.344.55.518.401.2 1.022.2.62 0 1.022-.2.348-.174.55-.518.035-.074.09-.136t.125-.106q.07-.045.15-.068t.162-.023q.058 0 .115.012.056.01.11.033.052.022.1.054t.089.073.073.088.054.101.033.11.011.114q0 .177-.098.325-.377.652-1.042.984-.648.325-1.544.325T3.67 5.676q-.666-.332-1.042-.984"/></svg>