<svg xmlns="http://www.w3.org/2000/svg" width="20" height="20" fill="none" viewBox="0 0 20 20"><rect width="20" height="20" rx="0"/><rect width="15" height="12.5" x="2.5" y="3.75" stroke="#0d0d0d" stroke-width="2" rx="3"/><path fill="#0d0d0d" fill-rule="evenodd" d="M5.529 9.207q-.069-.052-.129-.112-.042-.042-.08-.087-.036-.046-.07-.095-.032-.049-.06-.1-.028-.053-.05-.107-.023-.055-.04-.111t-.028-.114-.018-.117-.005-.117.005-.118.018-.116.028-.115.04-.11.05-.107.06-.1q.034-.05.07-.095.038-.046.08-.088.076-.076.164-.137t.186-.106.202-.07.211-.035.214.004.21.042.2.078.181.113l2.85 2.137q.18.135.36 0l2.852-2.138q.086-.064.182-.112t.2-.078q.102-.03.209-.042t.214-.004.211.034q.104.027.202.071.098.045.186.106t.164.137q.042.042.08.088.037.045.07.094.032.05.06.101t.05.107q.023.054.04.11.017.057.028.115.012.057.018.116t.005.118-.005.117-.018.117-.028.114q-.017.056-.04.11-.022.055-.05.107t-.06.101-.07.095-.08.087q-.06.06-.129.112l-2.85 2.137q-.72.54-1.62.54t-1.62-.54z"/></svg>