<svg xmlns="http://www.w3.org/2000/svg" width="24" height="24" fill="none" viewBox="0 0 24 24"><rect width="24" height="24" rx="0" style="opacity:.10000000149011612"/><path fill="#f9f9f9" d="M3.113 12.6q0 4.53 8.016 8.711a2.26 2.26 0 0 0 1.984.057q8-3.677 8-8.768V6.2c0-.662-.525-1.182-1.181-1.274q-1.66-.233-3.319-1.118-1.322-.705-2.643-1.824a2.9 2.9 0 0 0-3.713 0q-1.322 1.12-2.644 1.824-1.66.885-3.318 1.118c-.657.092-1.182.609-1.182 1.271z"/><path fill="#0d0d0d" fill-rule="evenodd" d="M7.855 11.806q-.07-.07-.124-.151t-.091-.172q-.038-.09-.057-.187-.02-.096-.02-.194t.02-.194.057-.186.091-.172q.055-.082.124-.151.07-.07.15-.124.082-.054.173-.092.09-.037.187-.056.096-.02.194-.02t.194.02.186.056.172.092q.082.055.151.124v-.001l2.13 2.13 3.515-3.516h.001q.07-.068.151-.123.082-.054.172-.092.09-.037.187-.056.096-.02.194-.02t.194.02.186.056.172.092q.082.055.151.124.07.07.124.15.054.082.092.173.037.09.056.186t.02.194-.02.194-.056.187-.092.172q-.055.081-.124.15l.001.002-4.22 4.22q-.069.069-.15.123-.082.055-.173.092-.09.038-.187.057-.096.019-.194.019t-.194-.02q-.096-.018-.187-.056-.09-.037-.172-.092-.082-.054-.151-.124z"/></svg>