<svg xmlns="http://www.w3.org/2000/svg" width="12" height="12" fill="none" viewBox="0 0 12 12"><path fill="#0d0d0d" fill-rule="evenodd" d="M.646 7.313q-.07.07-.108.162T.5 7.667V11q0 .05.01.098t.028.093.046.087.062.076q.035.034.076.062t.087.046.093.028.098.01h3.333q.1 0 .192-.038t.162-.108l6.667-6.667q.034-.035.062-.076t.046-.086.028-.094.01-.098-.01-.097q-.01-.049-.028-.094-.019-.046-.046-.086-.028-.041-.062-.076L8.02.646q-.07-.07-.162-.108T7.667.5t-.192.038-.162.108zm.854.56V10.5h2.626l6.167-6.167-2.626-2.626z"/></svg>