<svg xmlns="http://www.w3.org/2000/svg" width="20" height="20" fill="none" viewBox="0 0 20 20"><defs><linearGradient id="master_svg0_73_71134" x1=".24" x2=".84" y1="-.022" y2=".971"><stop offset="0%" stop-color="#f8e5dc"/><stop offset="100%" stop-color="#dfc2a5"/></linearGradient></defs><circle cx="10" cy="10" r="9.167" fill="#41322c"/><path fill="#eed6c5" d="M16.864 11.747q-.11.434-.274.85l-.776-.305q.145-.367.243-.75zm-.648 1.65q-.214.39-.475.752l-.675-.488q.23-.32.419-.664zm-1.038 1.437q-.304.325-.647.61l-.533-.64q.302-.251.57-.539zm-1.362 1.133q-.375.24-.778.432l-.358-.753q.356-.169.687-.38zm-1.603.762q-.42.138-.853.222l-.16-.817q.383-.075.753-.197zm-1.74.338q-.236.016-.473.016-.197 0-.393-.01l.046-.833q.173.01.347.01.21 0 .418-.014zm-1.755-.1q-.433-.08-.852-.213l.25-.794q.371.117.753.187zm-1.682-.534q-.405-.186-.783-.422l.441-.707q.334.208.69.373zm-1.504-.937q-.346-.28-.653-.602l.602-.576q.272.284.577.532zm-1.225-1.281q-.265-.359-.483-.747l.726-.408q.193.343.427.659zm-.867-1.542q-.169-.415-.284-.847l.805-.215q.102.382.251.747zm-.458-1.716q-.06-.437-.065-.878l.833-.01q.005.39.057.776zm-.02-1.75q.05-.443.154-.876l.81.197q-.093.382-.137.772zM3.38 7.48q.157-.413.365-.804l.736.391q-.183.345-.322.71zm.831-1.562q.257-.363.556-.692l.616.562q-.265.29-.49.61zm1.195-1.31q.338-.287.708-.53l.457.696q-.327.215-.624.469zm1.483-.972q.4-.195.82-.339l.27.789q-.372.127-.724.299zm1.672-.572q.438-.09.884-.126l.066.831q-.394.031-.78.111zm1.752-.14q.446.02.886.095l-.141.821q-.388-.067-.782-.084zm1.743.298q.427.13.834.311l-.34.76q-.36-.16-.736-.274zm1.62.723q.38.231.728.507l-.518.653q-.307-.244-.642-.447zm1.388 1.102q.311.319.58.673l-.664.504q-.237-.313-.512-.594zm1.072 1.414q.221.383.393.792l-.768.323q-.152-.36-.347-.7zm.687 1.635q.119.426.184.864l-.825.123q-.057-.387-.162-.763zm.259 1.745.001.159q0 .44-.054.875l-.827-.103q.048-.384.048-.772l-.002-.14z"/><path fill="url(#master_svg0_73_71134)" d="m5 8.727 2.455 2.637L7 14.454 10 13l3 1.455-.455-3.091L15 8.727l-3.273-.636L10 5 8.273 8.09z"/></svg>