<svg xmlns="http://www.w3.org/2000/svg" width="16.82" height="18.2" fill="none" viewBox="0 0 16.817 18.2"><path fill="#0d0d0d" d="M4.023 7.056h11.662a.75.75 0 0 0 .701-.488l.418-1.15c.039-.11-.008-.236-.11-.276a.3.3 0 0 0-.087-.015h-4.52V.22a.22.22 0 0 0-.22-.22h-1.442a.22.22 0 0 0-.22.22v4.9H4.022V.913a.22.22 0 0 0-.22-.22H2.36a.22.22 0 0 0-.22.22v7.67c0 2.623-.52 5.174-1.536 7.592 0 0 0 .008-.008.008l-.567.992a.22.22 0 0 0 .087.307l1.315.693a.22.22 0 0 0 .299-.094l.599-1.166c0-.008.007-.008.007-.015a21 21 0 0 0 1.434-5.08h8.08c.094 0 .165.079.165.166v5.992c0 .126.102.22.22.22h1.441a.22.22 0 0 0 .22-.22V10.38a.45.45 0 0 0-.448-.449h-9.49q.048-.673.048-1.346V7.056z"/></svg>