<svg xmlns="http://www.w3.org/2000/svg" width="18.33" height="18.33" fill="none" viewBox="0 0 18.333 18.333"><path fill="#0d0d0d" d="m10.322.406 1.448 1.246c.275.238.788.43 1.155.43h1.557c.972 0 1.769.798 1.769 1.77v1.557c0 .358.192.88.43 1.155l1.247 1.448c.54.632.54 1.668 0 2.31l-1.246 1.447c-.239.275-.431.789-.431 1.155v1.558c0 .972-.797 1.769-1.769 1.769h-1.557c-.358 0-.88.192-1.155.43l-1.448 1.247c-.632.54-1.667.54-2.309 0L6.565 16.68c-.274-.238-.788-.43-1.154-.43H3.826a1.776 1.776 0 0 1-1.769-1.769v-1.567c0-.357-.192-.87-.421-1.146L.399 10.312c-.532-.632-.532-1.658 0-2.29l1.237-1.458c.229-.275.421-.788.421-1.145V3.85c0-.971.797-1.768 1.769-1.768H5.41c.357 0 .88-.193 1.154-.431L8.013.406c.633-.541 1.668-.541 2.31 0"/></svg>