<svg xmlns="http://www.w3.org/2000/svg" width="13.33" height="14.17" fill="none" viewBox="0 0 15 15.833"><path fill="#0d0d0d" fill-rule="evenodd" d="M5.69 5.56q-.976-.977-2.357-.977-1.38 0-2.357.977Q0 6.536 0 7.917q0 1.38.976 2.357.976.976 2.357.976 1.38 0 2.357-.976.976-.977.976-2.357T5.69 5.56M2.154 6.738q.489-.488 1.179-.488t1.179.488T5 7.917t-.488 1.178q-.489.488-1.179.488t-1.179-.488-.488-1.178.488-1.179M14.024.976Q13.048 0 11.667 0q-1.38 0-2.357.976-.976.977-.976 2.357T9.31 5.69t2.357.977 2.357-.977T15 3.333 14.024.976m-3.536 1.179q.489-.488 1.179-.488t1.179.488q.488.488.488 1.178t-.488 1.179T11.667 5t-1.179-.488T10 3.333t.488-1.178m3.536 7.988q-.976-.976-2.357-.976-1.38 0-2.357.976-.976.976-.976 2.357 0 1.38.976 2.357.976.976 2.357.976 1.38 0 2.357-.976Q15 13.881 15 12.5q0-1.38-.976-2.357m-3.536 1.179q.489-.489 1.179-.489t1.179.489q.488.488.488 1.178t-.488 1.179-1.179.488-1.179-.488T10 12.5t.488-1.178"/><path fill="#0d0d0d" fill-rule="evenodd" d="M9.609 5.29 6.275 7.373 5.392 5.96l3.333-2.083zm0 5.253L6.275 8.46l-.883 1.413 3.333 2.084z"/></svg>