<svg xmlns="http://www.w3.org/2000/svg" width="20" height="20" fill="none" viewBox="0 0 20 20"><rect width="20" height="20" fill="#d8d8d8" fill-opacity=".01" rx="0"/><path fill="#000" fill-rule="evenodd" d="M10 3.335q.082 0 .163-.016.08-.016.156-.048.076-.031.145-.077t.126-.104.104-.126.077-.145.048-.156q.016-.08.016-.163 0-.082-.016-.163-.016-.08-.048-.156-.031-.076-.077-.145t-.104-.126-.126-.104-.145-.077-.156-.048q-.08-.016-.163-.016l-.05.002H5.833q-1.726 0-2.946 1.22t-1.22 2.946v8.334q0 1.726 1.22 2.946t2.946 1.22h8.334q1.726 0 2.946-1.22t1.22-2.946V10.05l.002-.05q0-.082-.016-.163-.016-.08-.048-.156-.031-.076-.077-.145t-.104-.126-.126-.104-.145-.077-.156-.048q-.08-.016-.163-.016-.082 0-.163.016-.08.016-.156.048-.076.031-.145.077t-.126.104-.104.126-.077.145-.048.156q-.016.08-.016.163l.002.05v4.117q0 1.035-.733 1.767-.732.733-1.767.733H5.833q-1.035 0-1.767-.733-.733-.732-.733-1.767V5.833q0-1.035.733-1.767.732-.733 1.767-.733H9.95z"/><path fill="#0d0d0d" fill-rule="evenodd" d="M17.717 3.044q.097-.114.15-.254.051-.14.051-.29 0-.082-.016-.163-.016-.08-.047-.156-.032-.076-.078-.145-.045-.068-.103-.126t-.127-.104-.144-.077-.157-.048-.163-.016q-.103 0-.202.025t-.19.074q-.092.048-.168.117-.076.07-.133.155L8.533 12.373q-.097.113-.15.254-.051.14-.051.29 0 .082.016.163.016.08.047.156.032.076.078.144.045.069.103.127t.127.104q.068.045.144.077.076.031.157.047.08.016.163.016.103 0 .202-.024.1-.025.19-.074.092-.048.168-.117.076-.07.133-.155z"/></svg>