<svg xmlns="http://www.w3.org/2000/svg" width="20" height="20" fill="none" viewBox="0 0 20 20"><defs><linearGradient id="master_svg0_353_92277" x1=".246" x2="1.089" y1="-.224" y2="1.228"><stop offset="0%" stop-color="#0d0d0d"/><stop offset="100%" stop-color="#3b3b3b"/></linearGradient><linearGradient id="master_svg1_353_92290" x1="1" x2="0" y1="-.284" y2="1.264"><stop offset="0%" stop-color="#fafafa"/><stop offset="100%" stop-color="#dcdcdc"/><stop offset="100%" stop-color="#fefefe" stop-opacity="0"/></linearGradient></defs><rect width="20" height="20" rx="0"/><path fill="url(#master_svg0_353_92277)" d="M2.218 25.902a2.5 2.5 0 0 0-.43 3.027L4.042 32.9a2.5 2.5 0 0 0 2.174 1.266h7.566a2.5 2.5 0 0 0 2.174-1.266l2.256-3.972a2.5 2.5 0 0 0-.431-3.027l-6.039-5.873a2.5 2.5 0 0 0-3.486 0z" transform="matrix(1 0 0 -1 0 36.667)"/><path fill="url(#master_svg1_353_92290)" fill-rule="evenodd" d="M13.337 6.331q.128.119.197.278.07.16.07.333 0 .082-.017.163-.016.08-.047.157-.032.076-.077.144-.046.068-.104.126-.058.059-.127.104-.068.046-.144.077-.076.032-.157.048-.08.016-.162.016-.091 0-.18-.02-.09-.02-.172-.058t-.155-.093-.13-.125q-.673-.693-1.671-.797-1.025-.107-1.86.463-.818.558-1.034 1.485-.214.918.272 1.74.495.838 1.46 1.15.978.317 1.926-.069.846-.344 1.275-1.089v-.468H9.948l-.05.002q-.082 0-.163-.016-.08-.016-.157-.048-.076-.031-.144-.077t-.126-.104-.104-.126-.077-.145-.048-.156-.016-.163.016-.163.048-.157q.031-.076.077-.144.045-.068.104-.126.058-.059.126-.104.068-.046.144-.077.076-.032.157-.048.08-.016.163-.016l.05.001h3.385q.082 0 .163.017.08.016.156.047t.144.077q.069.046.127.104t.103.126.077.144.048.156.016.163v1.508q0 .193-.085.366-.705 1.44-2.23 2.06-1.51.614-3.065.112-1.567-.507-2.383-1.889-.825-1.397-.46-2.966.363-1.56 1.718-2.484Q9 4.856 10.634 5.026q1.609.168 2.703 1.305"/></svg>