<svg xmlns="http://www.w3.org/2000/svg" width="17.7" height="17.18" fill="none" viewBox="0 0 24.663 24.664"><path fill="#0d0d0d" fill-rule="evenodd" d="M17.193 12.716q-.055.52-.481.91-.593.543-1.372.349l-1.925-.48q-.734-.183-1.078-.856-.344-.674-.061-1.376l1.29-3.203q.238-.589.856-.741l.147-.036q1.884-.464 3.269-1.825 1.384-1.361 1.88-3.238.162-.613.757-.836L23.864.112q.689-.258 1.343.078.654.337.844 1.047l.489 1.826q.209.78-.329 1.384-.386.433-.907.495l4.07 4.16q.483.493.473 1.184t-.507 1.171l-5.45 5.258q-.472.456-1.129.466-.656.01-1.142-.433zm5.544 2.796-4.72-4.3q-.783-.714-1.716-.211-.818.44-.792 1.298l-1.684-.42 1.207-2.994q2.288-.58 3.974-2.239 1.629-1.6 2.263-3.78l3.174-1.19.425 1.587q-.876-.019-1.305.825-.488.959.264 1.728l4.35 4.446z" style="mix-blend-mode:passthrough" transform="rotate(45 12.148 0)"/></svg>