<svg xmlns="http://www.w3.org/2000/svg" width="107" height="28" fill="none" viewBox="0 0 107 28"><path fill="#ff5aa3" fill-rule="evenodd" d="M24.381 6.967c-2.707 5.149-3.843 11.987-6.494 16.277-3.621 5.689-10.712 5.848-14.82 2.201C.088 22.76.036 19.921.088 16.217c0-3.22.218-6.195 1.732-8.875C3.28 4.657 6.526 1.01 13.234.367c.203-.019.421-.028.643-.028h.057c1.231 0 2.689.235 3.953.728 2.002.859 4.71 2.464 6.494 5.9"/><path fill="#00eff5" fill-rule="evenodd" d="M45.696 25.445c-4.113 3.647-11.2 3.488-14.825-2.201-2.65-4.29-3.787-11.128-6.49-16.277 1.785-3.436 4.492-5.041 6.49-5.9 1.264-.493 2.722-.728 3.952-.728q.368 0 .7.028c6.713.643 9.955 4.29 11.418 6.975 1.515 2.68 1.733 5.655 1.733 8.875.052 3.704 0 6.543-2.978 9.228"/><path fill="#395ae5" fill-rule="evenodd" d="M34.823.34c-1.23 0-2.688.234-3.952.727-1.998.858-4.705 2.464-6.49 5.9-1.784-3.436-4.492-5.042-6.494-5.9-1.264-.493-2.722-.728-3.953-.728 0 0 4.034-.28 10.445-.28 6.328 0 10.444.28 10.444.28"/><path fill="#0d0d0d" fill-rule="evenodd" d="m72.284 9.316 1.368.677h.002a.9.9 0 0 0 .376.078c.322 0 .633-.162.783-.441l2.85-5.327a.2.2 0 0 0 .013-.167.23.23 0 0 0-.126-.134l-1.37-.678c-.43-.188-.95-.025-1.159.364l-2.85 5.326a.2.2 0 0 0-.013.168c.02.06.067.108.126.134m-8.843 0-1.368.677h-.002a.9.9 0 0 1-.376.078c-.322 0-.633-.162-.783-.441l-2.85-5.327a.2.2 0 0 1-.013-.167.23.23 0 0 1 .126-.134l1.37-.678c.43-.188.95-.025 1.16.364l2.849 5.326a.2.2 0 0 1 .014.168.23.23 0 0 1-.127.134m43.46-5.946a.22.22 0 0 0-.181-.095H87.59a.493.493 0 0 0-.494.491v7.535c0 4.3-.338 9.158-2.848 12.59a.22.22 0 0 0 .068.323l1.905 1.096a.223.223 0 0 0 .3-.075c2.155-3.464 3.034-7.501 3.034-13.934V5.863a.14.14 0 0 1 .14-.138h15.785a.95.95 0 0 0 .888-.62l.56-1.533a.22.22 0 0 0-.027-.203"/><path fill="#0d0d0d" fill-rule="evenodd" d="m79.783 21.66-1.688-.982a.223.223 0 0 0-.33.153c-.298 1.624-.75 2.01-1.382 2.107-.914.143-2.163.143-2.906 0-.76-.14-1.197-.876-1.197-2.02v-6.974h6.044a.95.95 0 0 0 .888-.62l.508-1.39a.22.22 0 0 0-.208-.297H69.16V2.654c0-.122-.1-.221-.222-.221H66.78c-.122 0-.222.1-.222.221v8.983H56.34c-.123 0-.223.1-.223.221v1.865c0 .122.1.221.223.221h6.808c-.36 4.587-2.545 7.513-7.077 9.485a.22.22 0 0 0-.083.344l1.303 1.563a.22.22 0 0 0 .264.06c2.466-1.12 4.203-2.392 5.465-4.002 1.494-1.904 2.36-4.342 2.644-7.45h4.215v7.43c0 2.096 1.216 3.57 3.1 3.757 1.042.102 2.166.103 3.642 0 2.5-.175 2.918-1.768 3.286-3.174a.27.27 0 0 0-.124-.297"/></svg>