<svg xmlns="http://www.w3.org/2000/svg" width="13.33" height="12.62" fill="none" viewBox="0 0 13.333 12.625"><path fill="#888" fill-rule="evenodd" d="M.557 4.487q-.045.147-.082.297h.002q-.02.08-.02.16 0 .066.013.13.013.065.038.125t.061.115.083.1q.046.047.1.084.055.036.116.061.06.025.124.038.065.013.13.013.055 0 .11-.01.054-.009.107-.027.052-.018.1-.044.05-.026.093-.06t.08-.075.068-.087q.03-.047.052-.097t.035-.105h.002q.03-.117.064-.233.072-.237.167-.465.378-.913 1.08-1.615 1.46-1.459 3.521-1.459t3.52 1.459q.42.418.723.91l-.765.443a.369.369 0 0 0 .052.663l2.314.89a.37.37 0 0 0 .496-.287l.387-2.45a.369.369 0 0 0-.548-.376l-.781.45q-.39-.643-.934-1.186Q10.19.976 9.058.496 7.885 0 6.601 0T4.144.496Q3.01.976 2.138 1.85q-.89.89-1.37 2.047-.12.29-.211.591m.331 2.427 2.314.889c.29.111.321.508.053.663l-.868.501q.295.467.694.866 1.458 1.458 3.52 1.458t3.521-1.458q.702-.702 1.08-1.615.096-.229.167-.465.035-.116.064-.234h.002q.013-.053.035-.104t.052-.097.068-.087.08-.075.093-.06q.048-.027.1-.045t.107-.027.11-.009q.066 0 .13.013t.125.038.115.061.1.083q.047.046.083.1t.061.115.038.125.013.13q0 .081-.02.16h.002q-.037.15-.082.298-.09.3-.21.59-.48 1.158-1.37 2.048-.874.873-2.006 1.352-1.174.497-2.458.497t-2.457-.497q-1.133-.479-2.006-1.352-.525-.524-.907-1.142l-.678.392a.369.369 0 0 1-.548-.377L.392 7.2a.37.37 0 0 1 .496-.286"/></svg>