<svg xmlns="http://www.w3.org/2000/svg" width="3" height="3" fill="none" viewBox="0 0 4 4"><path fill="#f9f9f9" fill-rule="evenodd" d="M3 1v2.5q0 .05.01.098t.028.093.046.087.063.075.075.063.087.046.093.028Q3.451 4 3.5 4q.05 0 .098-.01t.093-.028.087-.046.075-.063.063-.075.046-.087.028-.093Q4 3.549 4 3.5v-3q0-.05-.01-.098T3.962.31 3.916.222 3.854.146Q3.819.112 3.778.084T3.69.038 3.598.01 3.5 0h-3Q.45 0 .402.01T.31.038.222.084.147.147.084.222.038.31.01.402Q0 .451 0 .5q0 .05.01.098T.038.69t.046.087.063.075.075.063.087.046.093.028Q.451 1 .5 1z"/><path fill="#f9f9f9" fill-rule="evenodd" d="M3.853.853q.07-.07.109-.162T4 .5q0-.05-.01-.098T3.962.31 3.916.222 3.853.147 3.778.084 3.69.038 3.598.01Q3.549 0 3.5 0q-.1 0-.191.038-.092.038-.162.109l-2.75 2.75q-.07.07-.109.162T.25 3.25q0 .05.01.098t.028.093.046.087.063.075.075.063.087.046.093.028q.049.01.098.01.1 0 .191-.038.092-.038.162-.109z"/></svg>