<svg xmlns="http://www.w3.org/2000/svg" width="18.82" height="18.06" fill="none" viewBox="0 0 18.824 18.058"><path fill="#0d0d0d" fill-rule="evenodd" d="m12.746 5.32 1.074.531h.002a.7.7 0 0 0 .295.062.7.7 0 0 0 .614-.347l2.237-4.185a.16.16 0 0 0 .011-.132.18.18 0 0 0-.099-.105L15.805.612c-.338-.148-.746-.02-.91.285l-2.237 4.185a.16.16 0 0 0-.011.132.18.18 0 0 0 .099.105m-6.942.001-1.074.53h-.002a.7.7 0 0 1-.295.062.7.7 0 0 1-.614-.347L1.582 1.38a.16.16 0 0 1-.011-.132.18.18 0 0 1 .099-.105L2.745.612c.338-.148.746-.02.91.285l2.237 4.185a.16.16 0 0 1 .011.132.18.18 0 0 1-.099.105"/><path fill="#0d0d0d" fill-rule="evenodd" d="m18.72 15.107-1.325-.771a.175.175 0 0 0-.26.12c-.233 1.276-.587 1.579-1.084 1.655-.718.112-1.698.112-2.281 0-.597-.11-.94-.688-.94-1.587v-5.48h4.745a.74.74 0 0 0 .697-.486l.4-1.093a.174.174 0 0 0-.165-.233h-8.126V.174A.174.174 0 0 0 10.206 0H8.513a.174.174 0 0 0-.175.174v7.058H.316a.175.175 0 0 0-.174.174V8.87c0 .095.078.173.174.173h5.345c-.283 3.604-1.998 5.904-5.556 7.453a.173.173 0 0 0-.065.27l1.023 1.228a.175.175 0 0 0 .207.047c1.936-.88 3.3-1.88 4.29-3.144 1.173-1.496 1.853-3.411 2.076-5.854h3.309v5.839c0 1.646.955 2.805 2.434 2.95.818.082 1.7.082 2.86.001 1.962-.137 2.29-1.389 2.579-2.494a.21.21 0 0 0-.097-.233"/></svg>