<svg xmlns="http://www.w3.org/2000/svg" width="20" height="20" fill="none" viewBox="0 0 20 20"><rect width="20" height="20" rx="0"/><path fill="#0d0d0d" fill-rule="evenodd" d="M2.654 9.638q-.418-2.786-.396-4.054.045-2.739 1.933-2.739 1.425 0 3.237 2.103Q8.558 6.26 10 8.513q1.443-2.253 2.574-3.565 1.811-2.103 3.237-2.103 1.887 0 1.933 2.74.021 1.267-.396 4.053-.429 2.86-.932 4.558-.335 1.132-.72 1.784-.693 1.174-1.74 1.174-1.364 0-2.713-1.762-.592-.773-1.243-1.947-.65 1.174-1.242 1.947-1.35 1.762-2.714 1.762-1.047 0-1.74-1.174-.385-.652-.72-1.784-.503-1.697-.931-4.558m2.373-.356q.404 2.696.86 4.233.198.67.386 1.06.26-.225.58-.642.8-1.044 1.785-3.076-1.762-2.872-3.029-4.343-.534-.62-.95-.958l-.002.068q-.018 1.07.37 3.658m9.948 0q-.404 2.696-.859 4.233-.198.67-.387 1.06-.26-.225-.58-.642-.799-1.044-1.784-3.076 1.761-2.872 3.028-4.343.534-.62.95-.958.002.033.002.068.018 1.07-.37 3.658"/></svg>