<svg xmlns="http://www.w3.org/2000/svg" width="20" height="20" fill="none" viewBox="0 0 20 20"><rect width="20" height="20" rx="0"/><path fill="#0d0d0d" d="M5.625 10q0 .092-.009.184-.01.091-.027.182-.018.09-.045.178-.026.088-.062.174-.035.085-.078.166-.044.081-.095.158-.051.076-.11.147-.058.072-.123.137t-.137.123-.147.11-.158.095q-.081.043-.166.078t-.174.062-.178.045-.182.027-.184.009-.184-.009-.182-.027-.178-.045q-.088-.026-.174-.062-.085-.035-.166-.078-.081-.044-.158-.095-.076-.051-.147-.11-.072-.058-.137-.123t-.123-.137-.11-.147-.095-.158q-.043-.081-.078-.166t-.062-.174-.045-.178-.027-.182T1.875 10t.009-.184.027-.182.045-.178.062-.174.078-.166q.044-.081.095-.158.051-.076.11-.147.058-.072.123-.137t.137-.123.147-.11.158-.095q.081-.043.166-.078t.174-.062.178-.045.182-.027.184-.009.184.009.182.027.178.045q.088.026.174.062.085.035.166.078.081.044.158.095.076.051.147.11.072.058.137.123t.123.137.11.147.095.158q.043.081.078.166t.062.174.045.178.027.182.009.184m6.25 0q0 .092-.009.184-.01.091-.027.182-.018.09-.045.178-.026.088-.062.174-.035.085-.078.166-.044.081-.095.158-.051.076-.11.147-.058.072-.123.137t-.137.123-.147.11-.158.095q-.081.043-.166.078t-.174.062-.178.045-.182.027-.184.009-.184-.009-.182-.027-.178-.045q-.088-.026-.174-.062-.085-.035-.166-.078-.081-.044-.158-.095-.076-.051-.147-.11-.072-.058-.137-.123t-.123-.137-.11-.147-.095-.158q-.043-.081-.078-.166t-.062-.174-.045-.178-.027-.182T8.125 10t.009-.184.027-.182.045-.178q.026-.088.062-.174.035-.085.078-.166.044-.081.095-.158.051-.076.11-.147.058-.072.123-.137t.137-.123.147-.11.158-.095q.081-.043.166-.078t.174-.062.178-.045.182-.027.184-.009.184.009.182.027.178.045q.088.026.174.062.085.035.166.078.081.044.158.095.076.051.147.11.072.058.137.123t.123.137.11.147.095.158q.043.081.078.166t.062.174.045.178.027.182.009.184m6.25 0q0 .092-.009.184-.01.091-.027.182-.018.09-.045.178-.026.088-.062.174-.035.085-.078.166-.044.081-.095.158-.051.076-.11.147-.058.072-.123.137t-.137.123-.147.11-.158.095q-.081.043-.166.078t-.174.062-.178.045-.182.027-.184.009-.184-.009-.182-.027-.178-.045q-.088-.026-.174-.062-.085-.035-.166-.078-.081-.044-.158-.095-.076-.051-.147-.11-.072-.058-.137-.123t-.123-.137-.11-.147-.095-.158q-.043-.081-.078-.166t-.062-.174-.045-.178-.027-.182-.009-.184.009-.184.027-.182.045-.178q.026-.088.062-.174.035-.085.078-.166.044-.081.095-.158.051-.076.11-.147.058-.072.123-.137t.137-.123.147-.11.158-.095q.081-.043.166-.078t.174-.062.178-.045.182-.027.184-.009.184.009.182.027.178.045q.088.026.174.062.085.035.166.078.081.044.158.095.076.051.147.11.072.058.137.123t.123.137.11.147.095.158q.043.081.078.166t.062.174.045.178.027.182.009.184"/></svg>