<svg xmlns="http://www.w3.org/2000/svg" width="18.34" height="17.8" fill="none" viewBox="0 0 18.337 17.799"><path fill="#0d0d0d" d="M4.391 13.332V6.797h2.186a.22.22 0 0 0 .223-.223V5.112a.22.22 0 0 0-.223-.223H4.391V.223A.22.22 0 0 0 4.17 0H2.714a.22.22 0 0 0-.223.223V4.88H.305a.22.22 0 0 0-.222.223v1.454c0 .128.103.223.222.223h2.186v7.1l-2.329.683a.22.22 0 0 0-.151.278l.405 1.4a.22.22 0 0 0 .279.15l6.026-1.765a.22.22 0 0 0 .15-.278l-.405-1.399a.22.22 0 0 0-.278-.151zm6.639-7.044 6.192-3.904-.509-1.9H8.128c-.16 0-.27.167-.207.31l.517 1.233c.095.222.31.365.548.365h4.349L7.65 6.304a.21.21 0 0 0-.096.182V7.99c0 .127.104.222.23.222l2.314-.015-.302.858a6.4 6.4 0 0 1-1.685 2.584l-.85.795a.226.226 0 0 0-.009.318l.994 1.065c.087.087.23.095.318.008l.85-.795a8.4 8.4 0 0 0 2.187-3.347l.532-1.51 1.169-.008-.962 2.989a5.88 5.88 0 0 1-2.123 2.95l-2.79 2.042a.227.227 0 0 0-.048.318l.859 1.177c.072.103.215.119.318.047l2.79-2.043a7.76 7.76 0 0 0 2.814-3.903l1.153-3.585.986-.008-.549 6.55a1.2 1.2 0 0 1-1.128 1.097l-1.869.096a.222.222 0 0 0-.198.294l.5 1.463a.225.225 0 0 0 .231.15l1.439-.095a3.105 3.105 0 0 0 2.933-2.846l.676-8.132a.45.45 0 0 0-.453-.485z"/></svg>