<svg xmlns="http://www.w3.org/2000/svg" width="38.16" height="21.88" fill="none" viewBox="0 0 38.156 21.877"><path fill="#ff5aa3" fill-rule="evenodd" d="M19.078 5.428c-2.125 4.046-3.017 9.419-5.098 12.79-2.843 4.47-8.41 4.595-11.635 1.729-2.337-2.11-2.378-4.34-2.337-7.25 0-2.53.17-4.868 1.36-6.974 1.144-2.11 3.694-4.975 8.96-5.48.159-.015.33-.022.504-.022h.045c.966 0 2.11.184 3.103.571 1.572.675 3.697 1.937 5.098 4.636"/><path fill="#00eff5" fill-rule="evenodd" d="M35.811 19.947c-3.229 2.866-8.792 2.74-11.638-1.73-2.081-3.37-2.973-8.743-5.095-12.789 1.401-2.7 3.527-3.96 5.095-4.636a8.9 8.9 0 0 1 3.103-.571q.289 0 .55.022c5.269.505 7.814 3.37 8.963 5.48 1.189 2.106 1.36 4.444 1.36 6.973.04 2.91 0 5.141-2.338 7.251"/><path fill="#395ae5" fill-rule="evenodd" d="M27.276.22a8.9 8.9 0 0 0-3.103.572c-1.568.675-3.694 1.936-5.095 4.636-1.4-2.7-3.526-3.961-5.098-4.636a8.9 8.9 0 0 0-3.103-.571S14.044 0 19.077 0c4.968 0 8.199.22 8.199.22"/></svg>