<svg xmlns="http://www.w3.org/2000/svg" width="20" height="20" fill="none" viewBox="0 0 20 20"><path fill="#0d0d0d" fill-rule="evenodd" d="M3.1 18.716q.137.04.28.033.142-.008.274-.063 1.663-.694 2.515-1.04.378-.153.592-.237 1.555.508 3.239.508 3.758 0 6.432-2.273 2.735-2.325 2.735-5.644 0-3.3-2.762-5.457Q13.79 2.5 10 2.5T3.595 4.543Q.833 6.699.833 10q0 2.738 2.376 5.278l-.07.273q-.192.717-.605 2.132-.047.159-.03.324.019.164.098.31.08.145.21.25.128.103.287.15m1.51-2.227q1.957-.796 2.146-.796.146 0 .282.05 1.412.507 2.962.507 3.145 0 5.353-1.876Q17.5 12.549 17.5 10q0-2.488-2.12-4.144-2.164-1.69-5.38-1.69t-5.38 1.69Q2.5 7.512 2.5 10q0 2.22 2.197 4.42.369.369.052 1.56-.06.222-.14.509"/></svg>