<svg xmlns="http://www.w3.org/2000/svg" width="14" height="14" fill="none" viewBox="0 0 14 14"><rect width="14" height="14" rx="0"/><path fill="#f5f5f5" fill-rule="evenodd" d="M2.574 6.247q-.532.865-.532 2.333 0 2.063 1.467 3.465Q4.945 13.417 7 13.417q2.05 0 3.497-1.425 1.461-1.438 1.461-3.505 0-1.246-.392-2.426-.355-1.066-.71-1.695-.23-.409-.691-.312-.428.09-.504.52-.07.398-.263.722-.072-.213-.159-.447-.408-1.098-.877-1.785-.667-.977-2.126-2.132l-.18-.143Q5.743.538 5.38.709q-.36.17-.369.567-.038 1.572-.543 2.522-.272.511-.616.89l-.183.203q-.104.117-.28.306-.5.536-.815 1.05m1.74 4.954q-1.106-1.057-1.106-2.62 0-1.14.36-1.723.255-.415.674-.865.185-.199.298-.325.066-.075.176-.196.442-.486.782-1.127.448-.842.602-2.01.867.755 1.298 1.387.389.57.748 1.534.27.724.368 1.192.074.348.413.475.34.127.624-.09.466-.353.768-.805.07.19.14.401.333 1.001.333 2.058 0 1.578-1.113 2.674Q8.572 12.25 7 12.25q-1.587 0-2.685-1.049"/></svg>