<svg xmlns="http://www.w3.org/2000/svg" width="11.08" height="11.08" fill="none" viewBox="0 0 12.264 12.261"><path fill="#f5f5f5" fill-rule="evenodd" d="M7.612 1.126zQ7.056 0 6.13 0T4.644 1.125l-.978 1.97q-.109.225-.353.267l-1.768.296Q.346 3.859.068 4.738q-.277.876.578 1.738L2.02 7.862q.195.196.134.47l-.393 1.715q-.319 1.387.46 1.96.781.575 2.003-.155l1.653-.987q.256-.15.503-.002l1.657.989q1.226.73 2.005.157.776-.57.458-1.962l-.393-1.711q-.061-.278.133-.474l1.373-1.384q.861-.863.582-1.74-.28-.879-1.48-1.08l-1.767-.296q-.25-.042-.361-.27zm-1.482.04q.201 0 .436.476l.976 1.967q.37.761 1.212.903l1.768.296q.497.084.561.284.064.201-.295.561L9.412 7.04q-.643.649-.443 1.549l.394 1.719q.147.644-.012.761-.156.115-.717-.22l-1.656-.988q-.84-.502-1.691-.002l-1.661.99q-.557.334-.714.218-.161-.118-.014-.76l.393-1.714q.201-.904-.442-1.553L1.474 5.655q-.358-.362-.294-.564.063-.2.559-.283l1.767-.296q.839-.143 1.21-.907l.973-1.962q.237-.476.44-.476"/></svg>