<svg xmlns="http://www.w3.org/2000/svg" width="9.17" height="8.91" fill="none" viewBox="0 0 9.167 8.911"><defs><linearGradient id="master_svg0_73_003831" x1=".5" x2=".726" y1="0" y2=".997"><stop offset="0%" stop-color="#f2ddd0"/><stop offset="100%" stop-color="#e2c6ab"/></linearGradient></defs><path fill="url(#master_svg0_73_003831)" d="m3.145 3.289.009 5.336h.753c.19.19.62.286.905.286h1.81c.573 0 1.192-.429 1.335-1L9.1 4.431c.239-.667-.19-1.239-.905-1.239H6.29a.48.48 0 0 1-.476-.571l.238-1.525c.095-.429-.19-.905-.62-1.048-.38-.143-.857.047-1.048.333zM0 2.976c0-.667.286-.906.953-.906h.476c.667 0 .953.239.953.906v4.86c0 .667-.286.905-.953.905H.953C.286 8.741 0 8.503 0 7.836z"/></svg>